<svg width="40" height="40" viewBox="0 0 40 40" fill="none" xmlns="http://www.w3.org/2000/svg">
<path d="M5.02732 0V6.47059H6.99454V0H5.02732ZM33.0055 0V6.47059H34.9727V0H33.0055ZM0 5.68627V8.62745H40V5.68627H36.9399V8.23529H31.0383V5.68627H8.96175V8.23529H3.06011V5.68627H0ZM0 10.3922V40H40V10.3922H0ZM12.0219 11.7647H13.9891V14.902H19.0164V11.7647H20.9836V14.902H26.0109V11.7647H27.9781V14.902H33.0055V11.7647H34.9727V14.902H38.4699V16.6667H34.9727V21.1765H38.4699V22.9412H34.9727V27.451H38.4699V29.2157H34.9727V33.7255H38.4699V35.4902H20.9836V38.6275H19.0164V35.4902H13.9891V38.6275H12.0219V35.4902H6.99454V38.6275H5.02732V35.4902H1.53005V33.7255H5.02732V29.2157H1.53005V27.451H5.02732V22.9412H1.53005V21.1765H5.02732V16.6667H1.53005V14.902H12.0219V11.7647ZM6.99454 16.6667V21.1765H12.0219V16.6667H6.99454ZM13.9891 16.6667V21.1765H19.0164V16.6667H13.9891ZM20.9836 16.6667V21.1765H26.0109V16.6667H20.9836ZM27.9781 16.6667V21.1765H33.0055V16.6667H27.9781ZM6.99454 22.9412V27.451H12.0219V22.9412H6.99454ZM13.9891 22.9412V27.451H19.0164V22.9412H13.9891ZM20.9836 22.9412V24.2422C21.264 23.6582 21.7829 23.1927 22.4339 22.9412H20.9836ZM24.5607 22.9412C25.2116 23.1927 25.7306 23.6582 26.0109 24.2422V22.9412H24.5607ZM27.9781 22.9412V27.451H33.0055V22.9412H27.9781ZM23.4973 24.5098C23.0631 24.5098 22.7322 24.8066 22.7322 25.1961C22.7322 25.5856 23.0631 25.8824 23.4973 25.8824C23.9315 25.8824 24.2623 25.5856 24.2623 25.1961C24.2623 24.8066 23.9315 24.5098 23.4973 24.5098ZM20.9836 26.15V27.451H22.4339C21.7829 27.1995 21.264 26.734 20.9836 26.15ZM26.0109 26.15C25.7306 26.734 25.2116 27.1995 24.5607 27.451H26.0109V26.15ZM6.99454 29.2157V33.7255H12.0219V29.2157H6.99454ZM13.9891 29.2157V33.7255H19.0164V29.2157H13.9891ZM20.9836 29.2157V33.7255H26.0109V29.2157H20.9836ZM27.9781 29.2157V33.7255H33.0055V29.2157H27.9781Z" fill="#77224C"/>
</svg>
