<svg width="40" height="40" viewBox="0 0 40 40" fill="none" xmlns="http://www.w3.org/2000/svg">
<path d="M28.3267 15.0217H28.34M28.34 11.6817V7.50837M12.5033 36.6667H7.86334C7.32501 36.6667 6.78334 36.59 6.28834 36.3784C4.67834 35.6867 3.86001 34.7717 3.48001 34.2C3.37688 34.0417 3.32621 33.8549 3.33518 33.6661C3.34416 33.4774 3.41232 33.2962 3.53001 33.1484C5.39668 30.6684 9.72334 29.1717 12.5033 29.1717M12.5117 36.6667H17.15C17.69 36.6667 18.23 36.59 18.725 36.3784C20.3367 35.6867 21.1533 34.7717 21.535 34.2C21.6381 34.0417 21.6888 33.8549 21.6798 33.6661C21.6709 33.4774 21.6027 33.2962 21.485 33.1484C19.6183 30.6684 15.2917 29.1717 12.5117 29.1717M36.6667 11.32C36.6667 15.73 32.9333 19.3067 28.3267 19.3067C27.7845 19.3067 27.2467 19.2567 26.7133 19.1567C26.33 19.085 26.14 19.05 26.005 19.07C25.8717 19.09 25.6817 19.19 25.305 19.3934C24.2261 19.9686 22.9843 20.1618 21.7817 19.9417C22.2383 19.3784 22.5483 18.7034 22.6867 17.98C22.77 17.5384 22.5633 17.1084 22.2533 16.7934C20.8059 15.339 19.9912 13.3719 19.9867 11.32C19.9867 6.91004 23.72 3.33337 28.3267 3.33337C32.9333 3.33337 36.6667 6.91004 36.6667 11.32ZM17.1417 20.4817C17.1399 21.7082 16.6512 22.8838 15.783 23.7501C14.9148 24.6164 13.7382 25.1026 12.5117 25.1017C11.9041 25.1026 11.3023 24.9838 10.7406 24.7521C10.179 24.5204 9.66842 24.1803 9.23817 23.7513C8.80793 23.3223 8.4664 22.8127 8.23308 22.2517C7.99976 21.6908 7.87922 21.0893 7.87834 20.4817C7.879 19.874 7.99938 19.2723 8.2326 18.7112C8.46582 18.15 8.80732 17.6402 9.23758 17.211C9.66785 16.7819 10.1785 16.4416 10.7402 16.2098C11.302 15.978 11.904 15.8592 12.5117 15.86C13.7385 15.8592 14.9154 16.3455 15.7836 17.2122C16.6519 18.0789 17.1403 19.2549 17.1417 20.4817Z" stroke="#77224C" stroke-width="2.5" stroke-linecap="round" stroke-linejoin="round"/>
</svg>
