<svg width="40" height="40" viewBox="0 0 40 40" fill="none" xmlns="http://www.w3.org/2000/svg">
<path d="M21.715 7.71496L26.5833 4.70496L35.3 10.7825L29.9392 14.8875M30.17 23.8441L35.4167 19.5608M30.17 21.6266L35.4167 17.3433M30.17 19.41L35.4167 15.1266M30.17 17.1933L35.4167 12.91M13.7642 11.9533L20.185 7.95329L28.7467 15.1933V25.665L23.7742 29.695V19.8475L13.7642 11.9533Z" stroke="#77224C" stroke-width="1.5" stroke-linecap="round" stroke-linejoin="round"/>
<path d="M28.4283 11.8099L30.6975 10.0791L29.1433 9.03992L27.895 9.98242M3.58331 26.6283L14.8691 35.2949L21.055 30.3699" stroke="#77224C" stroke-width="1.5" stroke-linecap="round" stroke-linejoin="round"/>
<path d="M4.58331 24.4042L15.8691 33.0708L22.055 28.1458" stroke="#77224C" stroke-width="1.5" stroke-linecap="round" stroke-linejoin="round"/>
<path d="M4.66998 22.1799L15.9558 30.8474L22.1416 25.9224" stroke="#77224C" stroke-width="1.5" stroke-linecap="round" stroke-linejoin="round"/>
<path d="M4.65833 19.9567L15.9433 28.6233L22.1292 23.6983M16.8625 19.7917C16.6742 20.6475 15.4508 21.0867 14.1308 20.7708C12.8108 20.4558 11.8933 19.5067 12.0817 18.65C12.27 17.7942 13.4933 17.3558 14.8133 17.6708C16.1333 17.9858 17.0508 18.9358 16.8625 19.7917Z" stroke="#77224C" stroke-width="1.5" stroke-linecap="round" stroke-linejoin="round"/>
<path d="M12.5425 13.1882L4.79663 17.8507L15.9058 26.2816L22.2725 21.2691" stroke="#77224C" stroke-width="1.5" stroke-linecap="round" stroke-linejoin="round"/>
</svg>
