<svg width="39" height="40" viewBox="0 0 39 40" fill="none" xmlns="http://www.w3.org/2000/svg">
<g clip-path="url(#clip0_146_785)">
<path d="M15.6033 32.7999C15.2033 32.7999 14.9367 33.1999 14.9367 33.8666C14.9367 34.3999 15.2033 34.9333 15.7367 34.9333C16.1367 34.9333 16.4033 34.5333 16.4033 33.8666C16.4033 33.3333 16.1367 32.7999 15.6033 32.7999ZM4.93666 32.7999C4.93666 32.9333 4.80332 33.1999 4.80332 33.3333L4.66999 33.9999H5.33666L5.20332 33.3333C5.06999 33.1999 5.06999 33.0666 4.93666 32.7999ZM2.40332 32.7999H2.13666V33.7333H2.40332C2.80332 33.7333 2.93666 33.5999 2.93666 33.1999C2.93666 32.7999 2.80332 32.7999 2.40332 32.7999ZM12.67 32.7999H12.4033V33.7333H12.67C13.07 33.7333 13.2033 33.5999 13.2033 33.1999C13.2033 32.7999 12.9367 32.7999 12.67 32.7999ZM18.5367 32.7999H18.27V33.5999H18.5367C18.9367 33.5999 19.07 33.4666 19.07 33.1999C19.07 32.9333 18.8033 32.7999 18.5367 32.7999ZM38.5367 9.73327L19.07 0.133273C18.9588 0.0633751 18.8341 0.017989 18.704 0.000143916C18.5739 -0.0177012 18.4415 -0.00759493 18.3156 0.0297883C18.1897 0.0671716 18.0733 0.130972 17.974 0.216932C17.8748 0.302891 17.795 0.409033 17.74 0.528273L17.7383 0.533273V0.666607L17.3383 1.33327L15.0717 5.99994H23.2317C24.395 5.99994 25.3383 6.94327 25.3383 8.10661V8.13494V38.7999C25.4717 38.6666 25.605 38.5333 25.605 38.3999L38.9383 11.0666C39.0041 10.9544 39.0461 10.8298 39.0617 10.7007C39.0774 10.5716 39.0663 10.4406 39.0293 10.3159C38.9923 10.1912 38.93 10.0755 38.8464 9.97583C38.7628 9.87618 38.6597 9.79475 38.5433 9.73661L38.5383 9.73494L38.5367 9.73327ZM15.3367 24.3999C14.4415 24.0923 13.5072 23.9133 12.5617 23.8683L12.5367 23.8666V27.7333C13.219 27.4273 13.8241 26.9721 14.3072 26.4013C14.7903 25.8304 15.1393 25.1585 15.3283 24.4349L15.3367 24.3999ZM15.7367 16.1333C14.7599 16.4896 13.728 16.6707 12.6883 16.6683L12.53 16.6666H12.5383V18.7999H16.1383C16.1264 17.8727 15.9856 16.9517 15.72 16.0633L15.7383 16.1333H15.7367ZM12.5367 11.8666V15.4666L12.6617 15.4683C13.6267 15.4683 14.5467 15.2716 15.3817 14.9166L15.3367 14.9333C15.1626 14.235 14.8186 13.5905 14.3354 13.0572C13.8521 12.524 13.2445 12.1184 12.5667 11.8766L12.5367 11.8666Z" fill="#77224C"/>
<path d="M17.07 23.6C17.5533 23.865 17.9267 24.2817 18.1317 24.785L18.1367 24.8C19.2054 23.5776 19.8584 22.0474 20.0017 20.43L20.0033 20.4H17.47C17.5361 21.5044 17.3942 22.6114 17.0517 23.6633L17.07 23.6ZM6.53667 25.8667C6.95667 26.24 7.44 26.5533 7.96833 26.7867L8.00333 26.8C7.635 26.3 7.32 25.7283 7.08667 25.1167L7.07 25.0667C6.8206 25.2725 6.63645 25.5464 6.54 25.855L6.53667 25.8667ZM17.2033 13.2C16.7033 12.8083 16.1383 12.4133 15.5517 12.0483L15.47 12C15.945 12.575 16.3483 13.235 16.65 13.9483L16.67 14C16.9367 14 17.2033 13.6 17.2033 13.2ZM15.7367 26.8C16.2489 26.5533 16.6933 26.2422 17.07 25.8667C17.0475 25.7027 16.9884 25.5459 16.8969 25.4079C16.8054 25.27 16.684 25.1545 16.5417 25.07L16.5367 25.0667C16.4 25.7317 16.12 26.315 15.73 26.8083L15.7367 26.8ZM17.6033 18.9333H20.1367C19.9602 17.2866 19.3564 15.7147 18.385 14.3733L18.4033 14.4C18.1494 14.9166 17.7331 15.3358 17.2183 15.5933L17.2033 15.6C17.3367 16.6667 17.47 17.7333 17.6033 18.9333ZM16.1367 20.4H12.5367V22.4C13.6563 22.4284 14.7612 22.6617 15.7967 23.0883L15.7367 23.0667C15.9933 22.203 16.128 21.3076 16.1367 20.4067V20.4ZM7.87 12.4C7.38038 12.5883 6.92745 12.8607 6.53167 13.205L6.53667 13.2C6.55843 13.5084 6.70169 13.7955 6.935 13.9983L6.93667 14C7.15 13.3817 7.46833 12.8483 7.87333 12.395L7.87 12.4ZM6.53667 15.4667C6.12334 15.1821 5.76481 14.8253 5.47833 14.4133L5.47 14.4C4.39414 15.7216 3.74391 17.3382 3.605 19.0367L3.60333 19.0667H6.00333C6.03042 17.8134 6.21806 16.5688 6.56167 15.3633L6.53667 15.4667ZM11.07 27.4667V23.8667C10.1288 23.9696 9.1989 24.1575 8.29167 24.4283L8.40333 24.4C8.56826 25.0824 8.89348 25.7156 9.35202 26.2472C9.81056 26.7788 10.3892 27.1934 11.04 27.4567L11.07 27.4667Z" fill="#77224C"/>
<path d="M23.7367 8.5333V8.4933C23.7359 8.23768 23.6404 7.99142 23.4686 7.8021C23.2968 7.61279 23.061 7.49386 22.8067 7.4683H1.06832C1.04055 7.46608 1.01055 7.46497 0.978324 7.46497C0.841664 7.4653 0.706572 7.49411 0.581669 7.54957C0.456766 7.60503 0.344794 7.68591 0.252897 7.78706C0.161 7.88821 0.0911955 8.0074 0.0479375 8.13704C0.00467956 8.26667 -0.0110822 8.4039 0.00165777 8.53997V8.53663V38.9516C0.00165777 39.5333 0.473324 40.0033 1.05332 40.0033H22.6683C22.9443 39.984 23.204 39.8659 23.4 39.6705C23.5959 39.4752 23.7148 39.2159 23.735 38.94V38.9366L23.7367 8.5333ZM2.26999 18.6666C2.47145 16.4073 3.45833 14.29 5.05907 12.6829C6.6598 11.0757 8.77314 10.0804 11.0317 9.86997L11.07 9.86663V9.7333H12.5367V9.86663C13.7885 9.96512 15.0087 10.3092 16.1275 10.8793C17.2463 11.4493 18.242 12.2341 19.0575 13.189C19.873 14.1438 20.4925 15.2499 20.8806 16.4441C21.2686 17.6383 21.4177 18.8973 21.3192 20.1491C21.2207 21.401 20.8766 22.6211 20.3065 23.74C19.7365 24.8588 18.9516 25.8544 17.9968 26.67C17.042 27.4855 15.9359 28.105 14.7417 28.493C13.5475 28.8811 12.2885 29.0301 11.0367 28.9316L11.07 28.9333C6.10833 28.495 2.24832 24.36 2.24832 19.3216C2.24832 19.0905 2.2561 18.8622 2.27166 18.6366L2.26999 18.6666ZM2.40332 34.2666H2.13666V35.3333H1.46999V32.2666H2.40332C2.73868 32.2295 3.07518 32.3259 3.33999 32.535L3.33666 32.5333C3.60332 32.6666 3.60332 32.9333 3.60332 33.2C3.60003 33.4475 3.50501 33.6851 3.33666 33.8666C3.22348 33.9932 3.08473 34.0943 2.92959 34.1632C2.77444 34.2322 2.60643 34.2674 2.43666 34.2666H2.40332ZM5.60332 35.3333L5.33666 34.5333H4.53666L4.26999 35.3333H3.60332L4.53666 32.2666H5.46999L6.40332 35.3333H5.60332ZM7.46999 35.3333C7.19268 35.3555 6.91421 35.308 6.65999 35.195L6.66999 35.2L6.80333 34.6666C7.05697 34.7774 7.3342 34.8232 7.60999 34.8H7.60332C7.86999 34.8 8.00333 34.6666 8.00333 34.5333C8.00333 34.4 7.86999 34.2666 7.46999 34.1333C7.06999 33.8666 6.66999 33.6 6.66999 33.2C6.66999 32.6666 7.06999 32.2666 7.86999 32.2666C8.14731 32.2444 8.42577 32.292 8.67999 32.405L8.66999 32.4L8.53666 32.9333C8.33544 32.8112 8.0976 32.764 7.86499 32.8H7.86999C7.60332 32.8 7.46999 32.9333 7.46999 33.0666C7.46999 33.2 7.60333 33.3333 8.00333 33.4666C8.45333 33.55 8.79166 33.9333 8.80333 34.3983C8.80333 34.9316 8.40333 35.3333 7.46999 35.3333ZM10.0033 35.3333C9.72601 35.3555 9.44755 35.308 9.19333 35.195L9.20333 35.2V34.6666C9.45697 34.7774 9.7342 34.8232 10.01 34.8H10.0033C10.27 34.8 10.5367 34.6666 10.5367 34.5333C10.5367 34.4 10.4033 34.2666 10.0033 34.1333C9.78434 34.113 9.58082 34.0117 9.43256 33.8492C9.28429 33.6868 9.20196 33.4749 9.20166 33.255L9.20333 33.1966V33.2C9.20333 32.6666 9.60332 32.2666 10.4033 32.2666C10.6806 32.2444 10.9591 32.292 11.2133 32.405L11.2033 32.4L11.07 32.9333C10.8688 32.8112 10.6309 32.764 10.3983 32.8H10.4033C10.1367 32.8 10.0033 32.9333 10.0033 33.0666C10.0033 33.2 10.1367 33.3333 10.5367 33.4666C10.9867 33.55 11.325 33.9333 11.3367 34.3983C11.2798 34.6983 11.1077 34.9657 10.8572 35.1402C10.6067 35.3147 10.2977 35.384 9.99666 35.3333H10.0033ZM13.6033 34C13.4901 34.1317 13.3405 34.2271 13.1733 34.2742C13.0061 34.3213 12.8287 34.3181 12.6633 34.265L12.67 34.2666H12.4033V35.3333H11.7367V32.2666H12.67C13.0053 32.2295 13.3419 32.3259 13.6067 32.535L13.6033 32.5333C13.87 32.6666 13.87 32.9333 13.87 33.2C13.8378 33.5011 13.7472 33.7705 13.5983 34.0083L13.6033 34ZM17.07 33.7333C17.0971 33.9273 17.0834 34.1248 17.0298 34.3131C16.9762 34.5015 16.8838 34.6766 16.7586 34.8272C16.6334 34.9779 16.4781 35.1007 16.3027 35.1878C16.1273 35.275 15.9357 35.3245 15.74 35.3333H15.47C15.0824 35.329 14.7118 35.1731 14.4377 34.8989C14.1636 34.6248 14.0077 34.2543 14.0033 33.8666V33.7333C13.9737 33.3466 14.0956 32.9636 14.3431 32.665C14.5907 32.3665 14.9445 32.1758 15.33 32.1333H15.4767C15.8417 32.1333 16.1936 32.2695 16.4635 32.5151C16.7335 32.7608 16.9022 33.0982 16.9367 33.4616V33.4683L17.07 33.7333ZM19.07 35.3333C18.9367 35.0666 18.9367 34.9333 18.8033 34.6666C18.67 34.2666 18.5367 34.1333 18.27 34.1333H18.0033V35.3333H17.3367V32.2666H18.27C18.436 32.2379 18.6063 32.2472 18.7682 32.2936C18.9302 32.3401 19.0795 32.4226 19.205 32.535L19.2033 32.5333C19.3713 32.7144 19.4663 32.9513 19.47 33.1983C19.466 33.3676 19.4142 33.534 19.3208 33.6752C19.2273 33.8164 19.0959 33.9284 18.9417 33.9983L18.9367 34C19.2033 34.1333 19.2033 34.2666 19.3367 34.5333C19.3689 34.8344 19.4594 35.1039 19.6083 35.3416L19.6033 35.3333H19.07ZM22.4033 32.9333H21.6033V35.3333H20.9367V32.9333H20.0033V32.4H22.27V32.9333H22.4033Z" fill="#77224C"/>
<path d="M6.53669 23.6C6.28609 22.5353 6.11065 21.4543 6.01169 20.365L6.00336 20.2666H3.73669C3.91276 21.8714 4.51721 23.3992 5.48669 24.69L5.47003 24.6666C5.76225 24.2444 6.11336 23.8916 6.52336 23.6083L6.53669 23.6ZM11.07 20.4H7.47003C7.47169 21.3516 7.61836 22.27 7.88836 23.1316L7.87003 23.0666C8.88885 22.7193 9.94599 22.4965 11.0184 22.4033L11.07 22.4V20.4ZM11.07 11.6C9.60336 11.8666 8.67003 13.4666 8.27003 14.6666C9.08836 14.9933 10.0367 15.2283 11.025 15.33L11.07 15.3333V11.6ZM11.07 18.9333V16.8C9.95044 16.7716 8.84552 16.5383 7.81003 16.1116L7.87003 16.1333C7.60486 17.0424 7.47019 17.9846 7.47003 18.9316L11.07 18.9333Z" fill="#77224C"/>
</g>
<defs>
<clipPath id="clip0_146_785">
<rect width="38.34" height="40" fill="white"/>
</clipPath>
</defs>
</svg>
