<svg width="40" height="40" viewBox="0 0 40 40" fill="none" xmlns="http://www.w3.org/2000/svg">
<path d="M25 35H21.6667V31.6667H25V35ZM21.6667 23.3333H18.3333V31.6667H21.6667V23.3333ZM35 20H31.6667V26.6667H35V20ZM31.6667 16.6667H28.3333V20H31.6667V16.6667ZM11.6667 20H8.33333V23.3333H11.6667V20ZM8.33333 16.6667H5V20H8.33333V16.6667ZM20 8.33333H23.3333V5H20V8.33333ZM7.5 7.5V12.5H12.5V7.5H7.5ZM15 15H5V5H15V15ZM7.5 27.5V32.5H12.5V27.5H7.5ZM15 35H5V25H15V35ZM27.5 7.5V12.5H32.5V7.5H27.5ZM35 15H25V5H35V15ZM31.6667 31.6667V26.6667H25V30H28.3333V35H35V31.6667H31.6667ZM28.3333 20H21.6667V23.3333H28.3333V20ZM21.6667 16.6667H11.6667V20H15V23.3333H18.3333V20H21.6667V16.6667ZM23.3333 15V11.6667H20V8.33333H16.6667V15H23.3333ZM11.25 8.75H8.75V11.25H11.25V8.75ZM11.25 28.75H8.75V31.25H11.25V28.75ZM31.25 8.75H28.75V11.25H31.25V8.75Z" fill="#77224C"/>
</svg>
