<svg width="40" height="40" viewBox="0 0 40 40" fill="none" xmlns="http://www.w3.org/2000/svg">
<path d="M20 0C9.56775 0 1.11108 8.45667 1.11108 18.8889H1.14331V37.7778C1.14331 39 2.14331 40 3.36553 40H36.6666C37.8889 40 38.8889 39 38.8889 37.7778V18.8889C38.8889 8.45667 30.4322 0 20 0Z" fill="#63205F"/>
<path d="M20 34.4445C28.5911 34.4445 35.5556 27.48 35.5556 18.8889C35.5556 10.2978 28.5911 3.33337 20 3.33337C11.4089 3.33337 4.44446 10.2978 4.44446 18.8889C4.44446 27.48 11.4089 34.4445 20 34.4445Z" fill="#FFEEFE"/>
<path d="M20 4.44439C27.9778 4.44439 34.4444 10.9111 34.4444 18.8888C34.4444 26.8666 27.9778 33.3333 20 33.3333C12.0222 33.3333 5.55554 26.8666 5.55554 18.8888C5.55554 10.9111 12.0222 4.44439 20 4.44439ZM20 2.22217C10.81 2.22217 3.33331 9.69883 3.33331 18.8888C3.33331 28.0788 10.81 35.5555 20 35.5555C29.19 35.5555 36.6666 28.0788 36.6666 18.8888C36.6666 9.69883 29.19 2.22217 20 2.22217Z" fill="#A4A4A4"/>
<path d="M21.1111 6.66665C21.1111 6.37197 20.994 6.08935 20.7856 5.88098C20.5773 5.67261 20.2946 5.55554 20 5.55554C19.7053 5.55554 19.4227 5.67261 19.2143 5.88098C19.0059 6.08935 18.8888 6.37197 18.8888 6.66665V7.77776C18.8888 8.07245 19.0059 8.35506 19.2143 8.56344C19.4227 8.77181 19.7053 8.88888 20 8.88888C20.2946 8.88888 20.5773 8.77181 20.7856 8.56344C20.994 8.35506 21.1111 8.07245 21.1111 7.77776V6.66665ZM21.1111 30C21.1111 29.7053 20.994 29.4227 20.7856 29.2143C20.5773 29.0059 20.2946 28.8889 20 28.8889C19.7053 28.8889 19.4227 29.0059 19.2143 29.2143C19.0059 29.4227 18.8888 29.7053 18.8888 30V31.1111C18.8888 31.4058 19.0059 31.6884 19.2143 31.8968C19.4227 32.1051 19.7053 32.2222 20 32.2222C20.2946 32.2222 20.5773 32.1051 20.7856 31.8968C20.994 31.6884 21.1111 31.4058 21.1111 31.1111V30ZM8.88885 17.7778H7.77774C7.48305 17.7778 7.20044 17.8948 6.99206 18.1032C6.78369 18.3116 6.66663 18.5942 6.66663 18.8889C6.66663 19.1836 6.78369 19.4662 6.99206 19.6745C7.20044 19.8829 7.48305 20 7.77774 20H8.88885C9.18353 20 9.46615 19.8829 9.67452 19.6745C9.8829 19.4662 9.99996 19.1836 9.99996 18.8889C9.99996 18.5942 9.8829 18.3116 9.67452 18.1032C9.46615 17.8948 9.18353 17.7778 8.88885 17.7778ZM32.2222 17.7778H31.1111C30.8164 17.7778 30.5338 17.8948 30.3254 18.1032C30.117 18.3116 30 18.5942 30 18.8889C30 19.1836 30.117 19.4662 30.3254 19.6745C30.5338 19.8829 30.8164 20 31.1111 20H32.2222C32.5169 20 32.7995 19.8829 33.0079 19.6745C33.2162 19.4662 33.3333 19.1836 33.3333 18.8889C33.3333 18.5942 33.2162 18.3116 33.0079 18.1032C32.7995 17.8948 32.5169 17.7778 32.2222 17.7778ZM29.6744 26.9922L28.8888 26.2067C28.7857 26.1035 28.6632 26.0217 28.5284 25.9658C28.3936 25.91 28.2492 25.8813 28.1033 25.8813C27.9574 25.8813 27.8129 25.91 27.6782 25.9658C27.5434 26.0217 27.4209 26.1035 27.3177 26.2067C27.2146 26.3098 27.1327 26.4323 27.0769 26.5671C27.0211 26.7019 26.9923 26.8463 26.9923 26.9922C26.9923 27.1381 27.0211 27.2826 27.0769 27.4173C27.1327 27.5521 27.2146 27.6746 27.3177 27.7778L28.1033 28.5633C28.3116 28.7717 28.5942 28.8887 28.8888 28.8887C29.1835 28.8887 29.4661 28.7717 29.6744 28.5633C29.8827 28.355 29.9998 28.0724 29.9998 27.7778C29.9998 27.4831 29.8827 27.2005 29.6744 26.9922ZM11.1111 26.2067L10.3255 26.9922C10.1172 27.2005 10.0001 27.4831 10.0001 27.7778C10.0001 28.0724 10.1172 28.355 10.3255 28.5633C10.5339 28.7717 10.8164 28.8887 11.1111 28.8887C11.4057 28.8887 11.6883 28.7717 11.8966 28.5633L12.6822 27.7778C12.7853 27.6746 12.8672 27.5521 12.923 27.4173C12.9788 27.2826 13.0076 27.1381 13.0076 26.9922C13.0076 26.8463 12.9788 26.7019 12.923 26.5671C12.8672 26.4323 12.7853 26.3098 12.6822 26.2067C12.579 26.1035 12.4566 26.0217 12.3218 25.9658C12.187 25.91 12.0425 25.8813 11.8966 25.8813C11.7507 25.8813 11.6063 25.91 11.4715 25.9658C11.3367 26.0217 11.2142 26.1035 11.1111 26.2067ZM10.3255 10.7855L11.1111 11.5711C11.2142 11.6743 11.3367 11.7561 11.4715 11.8119C11.6063 11.8677 11.7507 11.8965 11.8966 11.8965C12.0425 11.8965 12.187 11.8677 12.3218 11.8119C12.4566 11.7561 12.579 11.6743 12.6822 11.5711C12.7853 11.4679 12.8672 11.3455 12.923 11.2107C12.9788 11.0759 13.0076 10.9314 13.0076 10.7855C13.0076 10.6397 12.9788 10.4952 12.923 10.3604C12.8672 10.2256 12.7853 10.1031 12.6822 9.99999L11.8966 9.21443C11.6883 9.00609 11.4057 8.88904 11.1111 8.88904C10.8164 8.88904 10.5339 9.00609 10.3255 9.21443C10.1172 9.42277 10.0001 9.70535 10.0001 9.99999C10.0001 10.2946 10.1172 10.5772 10.3255 10.7855ZM28.8888 11.5711L29.6744 10.7855C29.8827 10.5772 29.9998 10.2946 29.9998 9.99999C29.9998 9.70535 29.8827 9.42277 29.6744 9.21443C29.4661 9.00609 29.1835 8.88904 28.8888 8.88904C28.5942 8.88904 28.3116 9.00609 28.1033 9.21443L27.3177 9.99999C27.2146 10.1031 27.1327 10.2256 27.0769 10.3604C27.0211 10.4952 26.9923 10.6397 26.9923 10.7855C26.9923 10.9314 27.0211 11.0759 27.0769 11.2107C27.1327 11.3455 27.2146 11.4679 27.3177 11.5711C27.4209 11.6743 27.5434 11.7561 27.6782 11.8119C27.8129 11.8677 27.9574 11.8965 28.1033 11.8965C28.2492 11.8965 28.3936 11.8677 28.5284 11.8119C28.6632 11.7561 28.7857 11.6743 28.8888 11.5711Z" fill="#292F33"/>
<path d="M9.9055 15.3767C9.82425 15.1725 9.80538 14.9488 9.8513 14.7339C9.89721 14.5189 10.0058 14.3224 10.1634 14.1693C10.321 14.0161 10.5205 13.913 10.7366 13.8732C10.9528 13.8334 11.1759 13.8586 11.3777 13.9456L20.4377 17.8456C20.7084 17.9622 20.9217 18.1815 21.0306 18.4553C21.1396 18.7291 21.1354 19.0349 21.0188 19.3056C20.9023 19.5763 20.683 19.7896 20.4092 19.8985C20.1354 20.0075 19.8295 20.0033 19.5588 19.8867L10.4988 15.9867C10.3647 15.929 10.2433 15.8454 10.1415 15.7408C10.0396 15.6361 9.95946 15.5124 9.9055 15.3767Z" fill="#DD2E44"/>
</svg>
