<svg width="24" height="23" viewBox="0 0 24 23" fill="none" xmlns="http://www.w3.org/2000/svg">
<path d="M9.88746 6.83677C11.7411 6.06892 13.8239 6.0689 15.6776 6.8367C17.5313 7.6045 19.0041 9.07723 19.7719 10.9309C20.5398 12.7846 20.5398 14.8674 19.772 16.7211C19.0042 18.5748 17.5315 20.0476 15.6778 20.8154C13.8241 21.5832 11.7413 21.5833 9.88762 20.8155C8.03392 20.0477 6.56115 18.5749 5.79331 16.7212C5.02546 14.8676 5.02544 12.7848 5.79324 10.9311C6.56104 9.07738 8.03378 7.60461 9.88746 6.83677Z" fill="#F2F2F2" stroke="#BDBDBD" stroke-linecap="round" stroke-linejoin="round"/>
<path d="M7.99391 11.036L7.55173 10.7783C7.51779 10.8365 7.49568 10.9009 7.48667 10.9676C7.47765 11.0344 7.48191 11.1023 7.49919 11.1674C7.51648 11.2325 7.54645 11.2936 7.58739 11.3471C7.62833 11.4006 7.67943 11.4455 7.73776 11.4792L7.99391 11.036ZM7.99468 11.0347L8.25057 10.5915C8.13336 10.5238 7.99411 10.5053 7.86328 10.54C7.73245 10.5747 7.6207 10.6599 7.5525 10.7768L7.99468 11.0347ZM8.58579 11.3758L9.02772 11.6338C9.06168 11.5755 9.08381 11.5112 9.09283 11.4444C9.10184 11.3776 9.09758 11.3096 9.08027 11.2445C9.06296 11.1793 9.03294 11.1183 8.99196 11.0647C8.95097 11.0112 8.89981 10.9663 8.84143 10.9326L8.58579 11.3758ZM8.58477 11.3774L8.32887 11.8206C8.44606 11.8882 8.58525 11.9067 8.71602 11.872C8.84679 11.8372 8.95849 11.7522 9.02669 11.6353L8.58477 11.3774ZM7.24082 13.7651L6.72903 13.7595C6.72829 13.8272 6.74098 13.8943 6.76636 13.9571C6.79175 14.0198 6.82933 14.0769 6.87693 14.125C6.92453 14.1731 6.9812 14.2113 7.04366 14.2374C7.10612 14.2635 7.17313 14.2769 7.24082 14.2769V13.7651ZM7.24082 13.7636V13.2518C7.1061 13.2518 6.97681 13.3049 6.881 13.3996C6.78519 13.4943 6.73058 13.623 6.72903 13.7577L7.24082 13.7636ZM7.92328 13.7636L8.43507 13.77C8.43595 13.7022 8.42336 13.6349 8.39804 13.5721C8.37271 13.5092 8.33515 13.452 8.28754 13.4038C8.23993 13.3555 8.18321 13.3172 8.12068 13.2911C8.05815 13.265 7.99106 13.2515 7.92328 13.2515V13.7636ZM7.92328 13.7654L7.92303 14.2771C8.05766 14.2772 8.18688 14.2241 8.28267 14.1295C8.37847 14.0349 8.43313 13.9064 8.43481 13.7718L7.92328 13.7654ZM7.94171 16.5244L7.49466 16.7736C7.52769 16.8329 7.57216 16.885 7.6255 16.9269C7.67884 16.9688 7.73998 16.9997 7.80536 17.0178C7.87075 17.0358 7.93907 17.0407 8.00637 17.0322C8.07366 17.0236 8.13858 17.0017 8.19734 16.9678L7.94171 16.5244ZM7.94094 16.5231L7.68505 16.0802C7.56871 16.1474 7.48346 16.2576 7.4477 16.3871C7.41193 16.5166 7.42853 16.655 7.4939 16.7723L7.94094 16.5231ZM8.53205 16.1817L8.97961 15.9335C8.94665 15.8741 8.90218 15.8218 8.84879 15.7797C8.7954 15.7376 8.73416 15.7066 8.66865 15.6884C8.60314 15.6703 8.53467 15.6654 8.46724 15.674C8.3998 15.6826 8.33476 15.7045 8.2759 15.7385L8.53205 16.1817ZM8.53282 16.1835L8.78871 16.6267C8.90498 16.5597 8.99024 16.4496 9.02614 16.3203C9.06204 16.191 9.0457 16.0527 8.98063 15.9353L8.53282 16.1835ZM9.93946 18.5836L9.67717 19.0229C9.73541 19.0577 9.79998 19.0805 9.86713 19.0901C9.93428 19.0997 10.0027 19.0959 10.0683 19.0788C10.1339 19.0617 10.1955 19.0318 10.2495 18.9907C10.3035 18.9496 10.3487 18.8982 10.3827 18.8394L9.93946 18.5836ZM9.93818 18.5828L9.49498 18.3269C9.42779 18.4432 9.40903 18.5813 9.44273 18.7113C9.47643 18.8413 9.5599 18.9529 9.67512 19.0219L9.93818 18.5828ZM10.2793 17.9917L10.5431 17.5531C10.4849 17.518 10.4202 17.495 10.3529 17.4852C10.2856 17.4754 10.2171 17.4791 10.1513 17.4961C10.0855 17.5131 10.0237 17.5431 9.96956 17.5842C9.91544 17.6254 9.87007 17.6769 9.83608 17.7358L10.2793 17.9917ZM10.2808 17.9924L10.724 18.2483C10.7911 18.1322 10.8099 17.9943 10.7764 17.8644C10.7428 17.7345 10.6596 17.623 10.5446 17.5538L10.2808 17.9924ZM12.7218 19.3681L12.7156 19.8799C12.7834 19.8807 12.8506 19.8681 12.9134 19.8427C12.9762 19.8174 13.0333 19.7798 13.0815 19.7322C13.1297 19.6846 13.1679 19.6279 13.194 19.5654C13.2201 19.5029 13.2336 19.4358 13.2336 19.3681H12.7218ZM12.7202 19.3681H12.2085C12.2084 19.5028 12.2615 19.632 12.3562 19.7279C12.4508 19.8237 12.5794 19.8783 12.7141 19.8799L12.7202 19.3681ZM12.7202 18.6857L12.7266 18.1739C12.6589 18.173 12.5916 18.1856 12.5287 18.2109C12.4659 18.2362 12.4087 18.2738 12.3604 18.3214C12.3122 18.369 12.2739 18.4257 12.2478 18.4883C12.2217 18.5508 12.2082 18.6179 12.2082 18.6857H12.7202ZM12.7218 18.6857H13.2336C13.2336 18.5511 13.1806 18.4219 13.086 18.3261C12.9915 18.2303 12.863 18.1756 12.7284 18.1739L12.7218 18.6857ZM15.5348 18.6368L15.7892 19.0808C15.8476 19.0473 15.8989 19.0026 15.94 18.9493C15.9812 18.896 16.0114 18.8351 16.029 18.7701C16.0466 18.7051 16.0511 18.6372 16.0424 18.5704C16.0337 18.5036 16.0119 18.4392 15.9783 18.3809L15.5348 18.6368ZM15.5335 18.6375L15.0906 18.8934C15.1582 19.0105 15.2694 19.0961 15.3999 19.1314C15.5305 19.1667 15.6696 19.149 15.7871 19.082L15.5335 18.6375ZM15.1922 18.0464L14.9388 17.602C14.8802 17.6354 14.8288 17.68 14.7875 17.7334C14.7463 17.7867 14.7159 17.8477 14.6983 17.9128C14.6807 17.9779 14.6761 18.0459 14.6849 18.1128C14.6936 18.1797 14.7155 18.2442 14.7492 18.3026L15.1922 18.0464ZM15.194 18.0457L15.6372 17.7898C15.5695 17.6726 15.4582 17.5869 15.3276 17.5516C15.1969 17.5162 15.0576 17.5341 14.9401 17.6012L15.194 18.0457ZM17.5942 16.5768L18.0387 16.8307C18.1057 16.7132 18.1235 16.5739 18.0882 16.4434C18.0528 16.3128 17.9673 16.2015 17.8501 16.1339L17.5942 16.5768ZM17.5935 16.5781L17.3376 17.0216C17.3959 17.0552 17.4603 17.077 17.5271 17.0857C17.5939 17.0944 17.6617 17.0899 17.7268 17.0723C17.7918 17.0548 17.8527 17.0245 17.906 16.9834C17.9593 16.9422 18.004 16.8909 18.0374 16.8325L17.5935 16.5781ZM17.0023 16.2373L16.5579 15.9834C16.4907 16.1009 16.4729 16.2403 16.5083 16.3709C16.5436 16.5015 16.6292 16.6128 16.7465 16.6805L17.0023 16.2373ZM17.0031 16.2357L17.259 15.7925C17.2006 15.7588 17.1362 15.737 17.0693 15.7282C17.0025 15.7195 16.9345 15.7241 16.8695 15.7417C16.8044 15.7593 16.7434 15.7895 16.6901 15.8308C16.6367 15.872 16.5921 15.9234 16.5586 15.9819L17.0031 16.2357ZM18.3245 13.7638L18.8363 13.7574C18.8347 13.6228 18.7801 13.4942 18.6843 13.3995C18.5885 13.3048 18.4592 13.2518 18.3245 13.2518V13.7638ZM18.3245 13.7651L18.3248 14.2769C18.3925 14.2769 18.4596 14.2635 18.5221 14.2373C18.5846 14.2112 18.6413 14.173 18.6889 14.1248C18.7365 14.0766 18.774 14.0195 18.7994 13.9567C18.8248 13.8939 18.8374 13.8267 18.8366 13.759L18.3245 13.7651ZM17.6423 13.7651L17.1305 13.7718C17.1322 13.9064 17.1869 14.0349 17.2827 14.1295C17.3785 14.2241 17.5077 14.2772 17.6423 14.2771V13.7651ZM17.6423 13.7633V13.2515C17.5746 13.2515 17.5075 13.265 17.4449 13.2911C17.3824 13.3172 17.3257 13.3555 17.2781 13.4038C17.2305 13.452 17.1929 13.5092 17.1676 13.5721C17.1423 13.6349 17.1297 13.7022 17.1305 13.77L17.6423 13.7633ZM17.5395 10.9818L17.9786 10.7187C17.9096 10.6034 17.798 10.5199 17.668 10.4862C17.538 10.4524 17.3999 10.4711 17.2836 10.5383L17.5395 10.9818ZM17.5402 10.9828L17.7961 11.426C17.8548 11.3921 17.9062 11.3468 17.9473 11.2929C17.9883 11.2389 18.0183 11.1774 18.0353 11.1117C18.0524 11.0461 18.0563 10.9778 18.0467 10.9107C18.0371 10.8435 18.0143 10.779 17.9796 10.7207L17.5402 10.9828ZM16.9491 11.3241L16.5105 11.5877C16.5796 11.7028 16.6912 11.7861 16.8211 11.8197C16.9511 11.8533 17.089 11.8345 17.2053 11.7673L16.9491 11.3241ZM16.9484 11.3226L16.6925 10.8794C16.6336 10.9134 16.5821 10.9588 16.5409 11.0129C16.4998 11.067 16.4698 11.1288 16.4528 11.1946C16.4358 11.2604 16.4321 11.329 16.4418 11.3962C16.4516 11.4635 16.4747 11.5282 16.5098 11.5864L16.9484 11.3226ZM15.4798 8.98452L15.729 8.53748C15.6116 8.47203 15.4732 8.45539 15.3436 8.49116C15.2141 8.52692 15.1038 8.61222 15.0366 8.72863L15.4798 8.98452ZM15.4811 8.98529L15.9245 9.24118C15.9585 9.1824 15.9803 9.11746 15.9889 9.05014C15.9975 8.98282 15.9926 8.91447 15.9746 8.84905C15.9565 8.78364 15.9256 8.72247 15.8837 8.66911C15.8417 8.61575 15.7896 8.57127 15.7303 8.53824L15.4811 8.98529ZM15.14 9.5764L14.8917 10.0242C15.0092 10.0894 15.1475 10.1057 15.2769 10.0698C15.4063 10.0339 15.5164 9.94862 15.5834 9.83229L15.14 9.5764ZM15.1384 9.57563L14.6952 9.31948C14.6612 9.37836 14.6393 9.44341 14.6307 9.51086C14.6221 9.5783 14.6271 9.64678 14.6452 9.71229C14.6634 9.7778 14.6945 9.83904 14.7366 9.89242C14.7787 9.9458 14.831 9.99025 14.8905 10.0232L15.1384 9.57563ZM12.7202 8.2844L12.7144 7.77261C12.5796 7.77416 12.451 7.82877 12.3563 7.92458C12.2616 8.02039 12.2084 8.14968 12.2085 8.2844H12.7202ZM12.7218 8.2844H13.2336C13.2336 8.21671 13.2201 8.1497 13.1941 8.08724C13.168 8.02478 13.1298 7.96811 13.0817 7.92051C13.0336 7.87291 12.9765 7.83533 12.9137 7.80994C12.851 7.78456 12.7838 7.77187 12.7161 7.77261L12.7218 8.2844ZM12.72 8.96686H12.2082C12.2082 9.03464 12.2217 9.10173 12.2478 9.16426C12.2739 9.22679 12.3122 9.28351 12.3604 9.33112C12.4087 9.37873 12.4659 9.41629 12.5287 9.44162C12.5916 9.46694 12.6589 9.47953 12.7266 9.47865L12.72 8.96686ZM12.722 8.96686L12.7284 9.47865C12.8631 9.47697 12.9916 9.4223 13.0862 9.32651C13.1808 9.23071 13.2338 9.1015 13.2338 8.96686H12.722ZM9.99269 9.03749L10.4359 8.7816C10.4022 8.72324 10.3573 8.67212 10.3038 8.63115C10.2503 8.59019 10.1893 8.56019 10.1241 8.54288C10.059 8.52557 9.99112 8.52129 9.92434 8.53029C9.85756 8.53929 9.79322 8.56138 9.735 8.59531L9.99269 9.03749ZM10.334 9.62835L10.592 10.0705C10.709 10.0023 10.7942 9.89053 10.8289 9.75964C10.8636 9.62874 10.845 9.48943 10.7773 9.3722L10.334 9.62835ZM9.99115 9.03826L9.73347 8.59608C9.61657 8.66424 9.53143 8.77592 9.49667 8.90669C9.4619 9.03746 9.48034 9.17668 9.54794 9.29389L9.99115 9.03826ZM10.3323 9.62937L9.88905 9.88526C9.92276 9.94363 9.96767 9.99476 10.0212 10.0357C10.0747 10.0767 10.1358 10.1067 10.201 10.124C10.2661 10.1412 10.334 10.1455 10.4008 10.1364C10.4676 10.1274 10.532 10.1053 10.5902 10.0713L10.3323 9.62937ZM8.43609 11.2939L8.43686 11.2927L7.5525 10.7768L7.55173 10.7783L8.43609 11.2939ZM7.73879 11.4782L8.3299 11.8193L8.84168 10.9326L8.25057 10.5915L7.73879 11.4782ZM8.14361 11.1179L8.14258 11.1197L9.02669 11.6356L9.02772 11.6338L8.14361 11.1179ZM8.84066 10.9344L8.2498 10.5931L7.73802 11.4795L8.32862 11.8208L8.84066 10.9344ZM7.7526 13.771V13.7697L6.72903 13.7577V13.7595L7.7526 13.771ZM7.24082 14.2756H7.92328V13.252H7.24056L7.24082 14.2756ZM7.4115 13.7572V13.7592L8.43507 13.772V13.7702L7.4115 13.7572ZM7.92328 13.2538L7.24082 13.2536V14.2769L7.92303 14.2771L7.92328 13.2538ZM8.38875 16.2757L8.38798 16.2744L7.4939 16.7723L7.49466 16.7736L8.38875 16.2757ZM8.19683 16.9666L8.78794 16.6252L8.2759 15.7385L7.68479 16.0804L8.19683 16.9666ZM8.08424 16.4302L8.08526 16.4318L8.98063 15.9353L8.97961 15.934L8.08424 16.4302ZM8.27693 15.7403L7.68582 16.0814L8.1976 16.9681L8.78871 16.6267L8.27693 15.7403ZM10.2017 18.1442L10.2012 18.1439L9.67538 19.0222L9.67717 19.0232L10.2017 18.1442ZM10.3814 18.8387L10.7225 18.2476L9.83608 17.7358L9.49498 18.3269L10.3814 18.8387ZM10.0155 18.4303L10.017 18.4313L10.5446 17.5538L10.5431 17.5533L10.0155 18.4303ZM9.83761 17.7368L9.49625 18.3279L10.3827 18.8394L10.724 18.2483L9.83761 17.7368ZM12.7279 18.8566H12.7264L12.7141 19.8799L12.7154 19.8802C12.7157 19.8802 12.7157 19.8802 12.7154 19.8802L12.7279 18.8566ZM13.232 19.3681V18.6854L12.2082 18.6857L12.2085 19.3681H13.232ZM12.7136 19.1974H12.7154L12.7284 18.1739H12.7266L12.7136 19.1974ZM12.21 18.6857V19.3681H13.2336V18.6857H12.21ZM15.2807 18.1928L15.2799 18.1931L15.7871 19.082L15.7892 19.0808L15.2807 18.1928ZM15.9767 18.3817L15.6354 17.7908L14.7492 18.3026L15.0906 18.894L15.9767 18.3817ZM15.446 18.4914C15.4465 18.4909 15.4469 18.4907 15.4473 18.4907L15.4478 18.4904L14.9401 17.6014L14.9391 17.6022L15.446 18.4914ZM14.7505 18.3016L15.0916 18.8927L15.9783 18.3809L15.6372 17.7898L14.7505 18.3016ZM17.1495 16.3235V16.324L18.0374 16.8325L18.0387 16.8307L17.1495 16.3235ZM17.8491 16.1352L17.258 15.7941L16.7465 16.6805L17.3376 17.0216L17.8491 16.1352ZM17.4468 16.4914L17.4471 16.4906L17.4476 16.4896L16.5586 15.9819L16.5579 15.9834L17.4468 16.4914ZM16.7472 16.6789L17.3383 17.0203L17.8501 16.1339L17.259 15.7925L16.7472 16.6789ZM17.8128 13.77V13.7715L18.8363 13.7592V13.7577L17.8128 13.77ZM18.3245 13.2536H17.6421L17.6423 14.2771L18.3248 14.2769L18.3245 13.2536ZM18.1541 13.759V13.7572L17.1305 13.7702V13.772L18.1541 13.759ZM17.6421 14.2754L18.3245 14.2756V13.2518L17.6423 13.252L17.6421 14.2754ZM17.1004 11.2448L17.1006 11.2453L17.9796 10.7207L17.9786 10.7187L17.1004 11.2448ZM17.2841 10.5398L16.693 10.8812L17.2053 11.7673L17.7964 11.4262L17.2841 10.5398ZM17.3877 11.0608V11.0603L17.3867 11.059L16.5098 11.5867L16.5105 11.5882L17.3877 11.0608ZM17.204 11.7661L17.7951 11.425L17.2836 10.5383L16.6925 10.8794L17.204 11.7661ZM15.2308 9.43156L15.2321 9.43233L15.7303 8.53824L15.7295 8.53773L15.729 8.53748L15.2308 9.43156ZM15.0379 8.7294L14.6968 9.32051L15.5834 9.83229L15.9245 9.24118L15.0379 8.7294ZM15.3884 9.12859L15.3866 9.12782L14.8905 10.0232L14.892 10.024L15.3884 9.12859ZM15.5816 9.83152L15.923 9.24041L15.0366 8.72863L14.6952 9.31948L15.5816 9.83152ZM12.7259 8.79618H12.7274L12.7161 7.77261H12.7144L12.7259 8.79618ZM13.2318 8.96686V8.2844H12.2085L12.2082 8.96686H13.2318ZM12.7156 8.45508H12.7133L12.7266 9.47865H12.7284L12.7156 8.45508ZM12.21 8.2844V8.96686H13.2338L13.2336 8.2844H12.21ZM9.54948 9.29338L9.89084 9.88449L10.7773 9.37245L10.4359 8.78134L9.54948 9.29338ZM10.2491 9.48018L10.2504 9.47967L9.735 8.59531L9.73347 8.59608L10.2491 9.48018ZM10.7757 9.37348L10.4346 8.78237L9.54794 9.29415L9.88905 9.88526L10.7757 9.37348ZM10.0761 9.18616L10.0743 9.18744L10.5905 10.0713L10.592 10.0705L10.0761 9.18616Z" fill="#4F4F4F"/>
<path d="M15.47 11.1567C15.5117 11.1034 15.5424 11.0423 15.5603 10.9771C15.5783 10.9118 15.5831 10.8437 15.5745 10.7766C15.5659 10.7095 15.5441 10.6447 15.5103 10.5861C15.4766 10.5275 15.4315 10.4761 15.3778 10.435C15.324 10.3939 15.2627 10.3638 15.1972 10.3466C15.1318 10.3294 15.0636 10.3253 14.9966 10.3346C14.9296 10.3438 14.865 10.3663 14.8068 10.4007C14.7485 10.4351 14.6976 10.4807 14.6571 10.5349L15.47 11.1567ZM12.9986 12.7023C12.957 12.7556 12.9263 12.8166 12.9084 12.8819C12.8904 12.9471 12.8856 13.0153 12.8942 13.0824C12.9028 13.1495 12.9246 13.2142 12.9584 13.2729C12.9921 13.3315 13.0372 13.3829 13.0909 13.424C13.1447 13.4651 13.206 13.4951 13.2715 13.5124C13.3369 13.5296 13.4051 13.5337 13.4721 13.5244C13.5391 13.5151 13.6036 13.4926 13.6619 13.4582C13.7202 13.4239 13.7711 13.3783 13.8116 13.3241L12.9986 12.7023ZM17.2746 16.9695C17.3926 17.0367 17.5324 17.0542 17.6633 17.0183C17.7943 16.9823 17.9055 16.8959 17.9727 16.7779C18.0398 16.6599 18.0574 16.5201 18.0214 16.3891C17.9855 16.2582 17.899 16.1469 17.781 16.0798L17.2746 16.9695ZM13.9265 13.8868C13.8085 13.8197 13.6687 13.8022 13.5378 13.8381C13.4069 13.8741 13.2957 13.9606 13.2286 14.0786C13.1614 14.1966 13.1439 14.3364 13.1799 14.4673C13.2159 14.5982 13.3024 14.7094 13.4204 14.7765L13.9265 13.8868ZM12.2709 13.8262C12.2709 13.6904 12.3248 13.5602 12.4208 13.4643C12.5168 13.3683 12.6469 13.3144 12.7827 13.3144V12.2908C12.3755 12.2908 11.9849 12.4526 11.697 12.7405C11.4091 13.0284 11.2473 13.419 11.2473 13.8262H12.2709ZM12.7827 14.3379C12.6469 14.3379 12.5168 14.284 12.4208 14.188C12.3248 14.0921 12.2709 13.9619 12.2709 13.8262H11.2473C11.2473 14.2334 11.4091 14.6239 11.697 14.9118C11.9849 15.1997 12.3755 15.3615 12.7827 15.3615V14.3379ZM13.2945 13.8262C13.2945 13.9619 13.2405 14.0921 13.1446 14.188C13.0486 14.284 12.9184 14.3379 12.7827 14.3379V15.3615C13.1899 15.3615 13.5804 15.1997 13.8683 14.9118C14.1563 14.6239 14.318 14.2334 14.318 13.8262H13.2945ZM12.7827 13.3144C12.9184 13.3144 13.0486 13.3683 13.1446 13.4643C13.2405 13.5602 13.2945 13.6904 13.2945 13.8262H14.318C14.318 13.419 14.1563 13.0284 13.8683 12.7405C13.5804 12.4526 13.1899 12.2908 12.7827 12.2908V13.3144ZM14.6568 10.5346L12.9986 12.7023L13.8116 13.3241L15.47 11.1567L14.6568 10.5346ZM17.781 16.0798L13.926 13.8868L13.4198 14.7765L17.2746 16.9695L17.781 16.0798Z" fill="#1E1E1E"/>
<path d="M16.0778 0.16172C15.9399 0.0797789 15.7882 0.0276843 15.6314 0.00841108C15.4745 -0.0108621 15.3157 0.00306386 15.164 0.0493937C15.0122 0.0957235 14.8704 0.173549 14.7468 0.278427C14.6232 0.383304 14.5201 0.513177 14.4435 0.66063L12.2125 4.95113L10.9356 3.58667C10.8248 3.46402 10.6922 3.36618 10.5456 3.29888C10.3989 3.23158 10.2412 3.19615 10.0817 3.19467C9.92212 3.19319 9.76387 3.22568 9.61618 3.29025C9.4685 3.35482 9.33432 3.45018 9.22149 3.57075C9.10865 3.69133 9.01942 3.83471 8.959 3.99253C8.89857 4.15036 8.86817 4.31946 8.86955 4.48997C8.87094 4.66049 8.90409 4.829 8.96707 4.98568C9.03005 5.14236 9.1216 5.28406 9.23638 5.40252L11.6398 7.97091C11.867 8.21427 12.1734 8.34783 12.4895 8.34783L12.6559 8.33498C12.8401 8.30745 13.0158 8.2346 13.1692 8.12218C13.3226 8.00976 13.4494 7.86082 13.5398 7.68711L16.5441 1.90823C16.6208 1.76083 16.6696 1.59874 16.6877 1.4312C16.7058 1.26366 16.6928 1.09395 16.6495 0.931773C16.6062 0.769593 16.5334 0.618116 16.4353 0.485989C16.3373 0.353863 16.2158 0.243676 16.0778 0.16172Z" fill="#343FE3"/>
</svg>
