<svg width="40" height="40" viewBox="0 0 40 40" fill="none" xmlns="http://www.w3.org/2000/svg">
<path d="M32.5 10V18.75M32.5 18.75L36.25 15M32.5 18.75L28.75 15M6.25 35V33.75C6.25 31.0978 7.30357 28.5543 9.17893 26.6789C11.0543 24.8036 13.5978 23.75 16.25 23.75H18.75C21.4022 23.75 23.9457 24.8036 25.8211 26.6789C27.6964 28.5543 28.75 31.0978 28.75 33.75V35M23.75 12.5C23.75 14.1576 23.0915 15.7473 21.9194 16.9194C20.7473 18.0915 19.1576 18.75 17.5 18.75C15.8424 18.75 14.2527 18.0915 13.0806 16.9194C11.9085 15.7473 11.25 14.1576 11.25 12.5C11.25 10.8424 11.9085 9.25269 13.0806 8.08058C14.2527 6.90848 15.8424 6.25 17.5 6.25C19.1576 6.25 20.7473 6.90848 21.9194 8.08058C23.0915 9.25269 23.75 10.8424 23.75 12.5Z" stroke="#77224C" stroke-width="3" stroke-linejoin="round"/>
</svg>
