<svg width="60" height="60" viewBox="0 0 60 60" fill="none" xmlns="http://www.w3.org/2000/svg">
<path d="M57.8572 45V53.5714C57.8572 54.708 57.4056 55.7981 56.6019 56.6018C55.7982 57.4056 54.7081 57.8571 53.5715 57.8571H45M45 2.14282H53.5715C54.7081 2.14282 55.7982 2.59435 56.6019 3.39808C57.4056 4.20181 57.8572 5.29189 57.8572 6.42854V15M2.14288 15V6.42854C2.14288 5.29189 2.59441 4.20181 3.39814 3.39808C4.20187 2.59435 5.29196 2.14282 6.4286 2.14282H15M15 57.8571H6.4286C5.29196 57.8571 4.20187 57.4056 3.39814 56.6018C2.59441 55.7981 2.14288 54.708 2.14288 53.5714V45" stroke="#ACACAC" stroke-linecap="round" stroke-linejoin="round"/>
<path d="M30 27.8571C32.2733 27.8571 34.4535 26.954 36.061 25.3466C37.6684 23.7391 38.5715 21.5589 38.5715 19.2857C38.5715 17.0124 37.6684 14.8322 36.061 13.2247C34.4535 11.6173 32.2733 10.7142 30 10.7142C27.7268 10.7142 25.5466 11.6173 23.9391 13.2247C22.3317 14.8322 21.4286 17.0124 21.4286 19.2857C21.4286 21.5589 22.3317 23.7391 23.9391 25.3466C25.5466 26.954 27.7268 27.8571 30 27.8571ZM46.2986 47.1428C45.1909 43.6907 43.0157 40.6795 40.0865 38.5432C37.1573 36.4068 33.6255 35.2557 30 35.2557C26.3746 35.2557 22.8427 36.4068 19.9136 38.5432C16.9844 40.6795 14.8092 43.6907 13.7015 47.1428H46.2986Z" fill="#D9D9D9"/>
<path d="M30 27.8571C32.2733 27.8571 34.4535 26.954 36.061 25.3466C37.6684 23.7391 38.5715 21.5589 38.5715 19.2857C38.5715 17.0124 37.6684 14.8322 36.061 13.2247C34.4535 11.6173 32.2733 10.7142 30 10.7142C27.7268 10.7142 25.5466 11.6173 23.9391 13.2247C22.3317 14.8322 21.4286 17.0124 21.4286 19.2857C21.4286 21.5589 22.3317 23.7391 23.9391 25.3466C25.5466 26.954 27.7268 27.8571 30 27.8571ZM46.2986 47.1428C45.1909 43.6907 43.0157 40.6795 40.0865 38.5432C37.1573 36.4068 33.6255 35.2557 30 35.2557C26.3746 35.2557 22.8427 36.4068 19.9136 38.5432C16.9844 40.6795 14.8092 43.6907 13.7015 47.1428H46.2986Z" stroke="#ACACAC" stroke-linecap="round" stroke-linejoin="round"/>
</svg>
